<?xml version="1.0" standalone="no"?>
<!DOCTYPE svg PUBLIC "-//W3C//DTD SVG 20010904//EN"
 "http://www.w3.org/TR/2001/REC-SVG-20010904/DTD/svg10.dtd">
<svg version="1.0" xmlns="http://www.w3.org/2000/svg"
 width="300.000000pt" height="300.000000pt" viewBox="0 0 300.000000 300.000000"
 preserveAspectRatio="xMidYMid meet">

<g transform="translate(0.000000,300.000000) scale(0.100000,-0.100000)"
fill="#000000" stroke="none">
<path d="M1899 2546 c-75 -29 -181 -76 -235 -105 -245 -131 -287 -168 -389
-335 -32 -54 -67 -102 -77 -107 -23 -12 -52 -77 -117 -258 -27 -75 -69 -179
-94 -231 -24 -52 -61 -138 -82 -190 -46 -115 -166 -358 -208 -420 -17 -25 -79
-95 -138 -155 -92 -94 -112 -119 -129 -169 -29 -86 -47 -223 -32 -244 24 -34
24 -44 -2 -91 -31 -59 -32 -71 -5 -105 39 -49 106 -32 281 72 46 27 146 85
223 128 344 193 469 289 780 604 209 212 221 221 250 215 109 -24 219 -37 350
-42 265 -9 432 41 540 160 82 90 132 171 161 262 25 76 26 87 20 230 -7 163
-24 291 -51 370 -26 76 -75 163 -107 190 -36 30 -188 77 -236 73 -33 -3 -42
-10 -84 -73 -26 -38 -75 -124 -109 -189 -64 -124 -133 -231 -176 -278 -25 -26
-27 -26 -62 -13 -20 8 -65 21 -100 30 -36 9 -82 25 -103 36 -33 17 -38 24 -32
42 3 12 49 110 101 217 189 389 192 411 58 423 -55 5 -72 1 -196 -47z m63
-229 c-113 -227 -172 -367 -172 -408 0 -46 126 -134 220 -154 19 -4 77 -20
129 -36 81 -25 97 -27 120 -16 45 21 172 197 255 354 88 166 112 203 130 203
7 0 36 -7 64 -15 50 -15 53 -18 86 -88 43 -88 62 -193 71 -382 7 -128 5 -145
-15 -204 -25 -77 -71 -148 -138 -218 -53 -55 -117 -82 -245 -103 -143 -23
-425 0 -519 42 -31 14 -55 18 -73 14 -17 -4 -123 -104 -283 -264 -325 -326
-402 -387 -732 -576 -181 -105 -260 -147 -260 -138 0 4 7 16 15 26 24 31 19
72 -12 95 -15 13 -34 19 -45 16 -13 -5 -18 -1 -18 13 0 50 28 93 130 197 59
61 124 135 143 166 48 76 187 358 216 439 13 36 46 112 74 170 27 58 60 136
73 174 47 137 87 227 106 237 11 6 28 31 39 57 35 80 117 207 167 258 59 60
277 180 426 235 55 20 103 35 105 33 2 -2 -23 -59 -57 -127z"/>
</g>
</svg>
