<?xml version="1.0" standalone="no"?>
<!DOCTYPE svg PUBLIC "-//W3C//DTD SVG 20010904//EN"
 "http://www.w3.org/TR/2001/REC-SVG-20010904/DTD/svg10.dtd">
<svg version="1.0" xmlns="http://www.w3.org/2000/svg"
 width="300.000000pt" height="300.000000pt" viewBox="0 0 300.000000 300.000000"
 preserveAspectRatio="xMidYMid meet">

<g transform="translate(0.000000,300.000000) scale(0.100000,-0.100000)"
fill="#000000" stroke="none">
<path d="M1707 2542 c-25 -28 -21 -59 23 -162 22 -51 63 -170 91 -264 29 -94
64 -196 78 -226 24 -51 29 -55 63 -58 30 -3 40 1 54 23 17 26 16 31 -60 268
-78 244 -134 387 -163 420 -21 22 -65 22 -86 -1z"/>
<path d="M1020 2463 c-41 -14 -51 -63 -24 -114 9 -18 21 -89 30 -172 19 -200
50 -385 69 -413 15 -24 46 -31 80 -18 33 13 35 48 10 206 -13 84 -26 191 -30
238 -12 164 -37 240 -86 265 -15 8 -29 15 -31 14 -2 0 -10 -3 -18 -6z"/>
<path d="M2717 1502 c-20 -22 -52 -111 -62 -173 -23 -139 -96 -384 -140 -468
-28 -55 -115 -150 -161 -177 -96 -56 -245 -71 -564 -55 -370 18 -639 86 -791
198 -68 50 -189 174 -271 277 -73 91 -131 137 -176 138 -39 1 -72 -26 -72 -59
0 -24 7 -31 89 -101 24 -20 76 -77 116 -127 73 -92 184 -197 267 -254 165
-111 457 -183 818 -202 340 -18 513 -1 631 62 66 35 172 141 214 212 42 73 98
235 134 387 18 74 41 167 52 207 10 39 19 82 19 96 0 50 -69 76 -103 39z"/>
</g>
</svg>
