<?xml version="1.0" standalone="no"?>
<!DOCTYPE svg PUBLIC "-//W3C//DTD SVG 20010904//EN"
 "http://www.w3.org/TR/2001/REC-SVG-20010904/DTD/svg10.dtd">
<svg version="1.0" xmlns="http://www.w3.org/2000/svg"
 width="300.000000pt" height="300.000000pt" viewBox="0 0 300.000000 300.000000"
 preserveAspectRatio="xMidYMid meet">

<g transform="translate(0.000000,300.000000) scale(0.100000,-0.100000)"
fill="#000000" stroke="none">
<path d="M2115 2905 c-71 -7 -164 -18 -205 -25 -189 -30 -326 -54 -455 -82
-145 -30 -417 -65 -541 -69 -61 -2 -74 1 -92 19 -26 26 -60 28 -128 7 -59 -17
-106 -60 -142 -130 -73 -142 -13 -499 134 -803 35 -73 71 -161 79 -195 33
-148 49 -295 49 -457 0 -235 -26 -329 -138 -487 -101 -145 -162 -310 -142
-388 16 -64 93 -97 130 -56 14 15 17 35 15 102 -3 74 0 90 24 134 30 57 30 55
17 -95 -11 -134 -8 -139 101 -175 77 -26 91 -27 193 -22 61 4 185 16 276 28
132 17 192 20 300 15 396 -18 436 -18 580 -3 80 9 183 19 230 22 135 10 390
44 445 60 28 9 73 28 100 43 l50 27 3 311 2 310 -36 37 c-50 49 -114 74 -153
58 -42 -18 -49 -44 -43 -158 2 -57 2 -103 -1 -103 -3 0 -32 39 -64 88 -61 90
-98 176 -198 457 -32 88 -61 167 -65 175 -8 16 -96 308 -111 370 -5 19 -13 71
-19 115 -6 44 -13 92 -16 106 l-5 26 93 -4 c113 -6 189 7 272 47 234 111 305
360 147 514 -55 54 -196 133 -285 162 -101 32 -224 38 -401 19z m368 -146
c127 -42 257 -139 273 -205 8 -30 -7 -85 -35 -131 -25 -40 -98 -90 -167 -114
-73 -26 -196 -26 -244 0 -33 17 -35 22 -38 72 -3 79 18 103 94 103 53 1 60 4
74 29 23 41 -1 77 -67 99 -68 23 -108 11 -163 -48 -54 -59 -70 -99 -70 -178 0
-72 11 -110 42 -143 l20 -21 -21 -21 c-26 -26 -25 -19 -1 -177 25 -166 85
-373 194 -674 93 -255 147 -388 183 -448 53 -87 175 -243 200 -255 61 -28 132
57 143 172 l6 66 17 -55 c29 -95 50 -223 43 -263 -17 -93 -104 -136 -336 -166
-85 -11 -191 -22 -235 -25 -44 -4 -153 -14 -243 -23 -142 -15 -188 -15 -375
-5 -278 16 -324 15 -502 -8 -221 -29 -344 -35 -389 -20 l-38 12 7 103 c7 103
7 104 -19 130 -18 18 -34 25 -47 22 -26 -7 -24 -2 16 53 47 63 89 159 117 262
20 72 23 106 22 268 0 152 -5 214 -26 345 -29 174 -50 241 -109 350 -85 157
-159 439 -159 601 0 60 24 128 51 151 8 7 33 16 56 21 37 9 44 7 64 -14 20
-21 32 -24 93 -24 117 0 398 37 606 79 355 72 543 96 768 99 110 2 143 -1 195
-19z"/>
<path d="M1232 2165 c-50 -26 -133 -107 -154 -152 -15 -31 -2 -72 27 -85 34
-16 73 3 112 56 18 23 48 51 67 61 l34 19 94 -41 c204 -90 324 -91 419 -6 32
29 52 38 97 44 84 12 118 63 72 109 -16 16 -33 20 -79 20 -75 0 -106 -12 -153
-57 -64 -63 -143 -61 -303 7 -128 55 -165 59 -233 25z"/>
<path d="M1466 1825 c-21 -7 -45 -20 -55 -30 -22 -19 -125 -170 -142 -207 -17
-38 -5 -73 30 -88 42 -17 62 -3 125 94 63 95 78 110 103 102 10 -3 65 -35 123
-71 58 -37 143 -85 189 -107 72 -35 97 -42 160 -45 64 -4 81 -1 109 17 43 26
71 90 72 158 0 58 -23 92 -63 92 -42 0 -61 -24 -67 -81 -5 -50 -7 -54 -33 -57
-44 -5 -115 23 -232 94 -230 139 -257 150 -319 129z"/>
<path d="M1534 1361 c-22 -10 -54 -35 -72 -56 -39 -48 -122 -233 -122 -272 0
-38 27 -63 68 -63 26 0 36 7 52 33 11 17 20 38 20 45 0 27 81 182 101 192 29
16 76 -2 194 -73 219 -133 371 -198 430 -183 14 4 32 20 41 38 14 26 15 40 6
82 -6 28 -13 72 -17 98 -10 80 -72 109 -118 56 -14 -16 -16 -31 -11 -69 5 -37
3 -49 -6 -49 -16 0 -131 62 -265 144 -157 95 -223 112 -301 77z"/>
</g>
</svg>
